<svg width="24" height="24" viewBox="0 0 24 24" fill="none" xmlns="http://www.w3.org/2000/svg">
<circle cx="11.883" cy="5.65352" r="3.80743" stroke="#B3B3B3" stroke-width="1.69219"/>
<path d="M19.9207 18.7679C19.9207 19.7701 19.7198 20.4059 19.4344 20.827C19.1549 21.2392 18.7331 21.5362 18.1077 21.7455C17.4671 21.9599 16.6544 22.068 15.6566 22.1166C14.835 22.1565 13.9352 22.1549 12.9479 22.1531C12.7379 22.1527 12.5239 22.1523 12.3058 22.1523C12.1044 22.1523 11.9052 22.1526 11.7083 22.1529C9.44183 22.156 7.49122 22.1587 6.05056 21.736C5.29544 21.5144 4.76662 21.197 4.42081 20.7696C4.08154 20.3502 3.84487 19.734 3.84487 18.7679C3.84487 14.9291 7.29832 11.9992 11.8828 11.9992C16.4672 11.9992 19.9207 14.9291 19.9207 18.7679Z" stroke="#B3B3B3" stroke-width="1.69219"/>
</svg>
